<mxfile host="app.diagrams.net" agent="Mozilla/5.0 (Windows NT 10.0; Win64; x64) AppleWebKit/537.36 (KHTML, like Gecko) Chrome/131.0.0.0 Safari/537.36" version="26.0.3">
  <diagram name="第 1 页" id="dX06Xu6pD4hWuj05Mwyk">
    <mxGraphModel dx="1059" dy="641" grid="1" gridSize="10" guides="1" tooltips="1" connect="1" arrows="1" fold="1" page="1" pageScale="1" pageWidth="827" pageHeight="1169" math="0" shadow="0">
      <root>
        <mxCell id="0" />
        <mxCell id="1" parent="0" />
        <mxCell id="AgnMiAAKrqAUzmb-iD08-15" value="&lt;div style=&quot;&quot;&gt;&lt;br&gt;&lt;/div&gt;" style="rounded=0;whiteSpace=wrap;html=1;align=left;" parent="1" vertex="1">
          <mxGeometry x="70" y="100" width="540" height="460" as="geometry" />
        </mxCell>
        <mxCell id="AgnMiAAKrqAUzmb-iD08-1" value="kong gateway" style="rounded=0;whiteSpace=wrap;html=1;" parent="1" vertex="1">
          <mxGeometry x="200" y="230" width="350" height="20" as="geometry" />
        </mxCell>
        <mxCell id="k7XGvMZ9DqhgHn6kebsS-4" value="" style="rounded=0;whiteSpace=wrap;html=1;fillColor=#ffe6cc;strokeColor=#d79b00;" vertex="1" parent="1">
          <mxGeometry x="70" y="150" width="540" height="70" as="geometry" />
        </mxCell>
        <mxCell id="AgnMiAAKrqAUzmb-iD08-2" value="app" style="rounded=0;whiteSpace=wrap;html=1;" parent="1" vertex="1">
          <mxGeometry x="200" y="160" width="40" height="40" as="geometry" />
        </mxCell>
        <mxCell id="AgnMiAAKrqAUzmb-iD08-12" style="edgeStyle=orthogonalEdgeStyle;rounded=0;orthogonalLoop=1;jettySize=auto;html=1;entryX=0.5;entryY=0;entryDx=0;entryDy=0;" parent="1" source="AgnMiAAKrqAUzmb-iD08-3" target="AgnMiAAKrqAUzmb-iD08-1" edge="1">
          <mxGeometry relative="1" as="geometry" />
        </mxCell>
        <mxCell id="AgnMiAAKrqAUzmb-iD08-3" value="web" style="rounded=0;whiteSpace=wrap;html=1;" parent="1" vertex="1">
          <mxGeometry x="355" y="160" width="40" height="40" as="geometry" />
        </mxCell>
        <mxCell id="AgnMiAAKrqAUzmb-iD08-4" value="??" style="rounded=0;whiteSpace=wrap;html=1;" parent="1" vertex="1">
          <mxGeometry x="510" y="160" width="40" height="40" as="geometry" />
        </mxCell>
        <mxCell id="k7XGvMZ9DqhgHn6kebsS-6" value="" style="rounded=0;whiteSpace=wrap;html=1;fillColor=#d5e8d4;strokeColor=#82b366;" vertex="1" parent="1">
          <mxGeometry x="70" y="295" width="540" height="70" as="geometry" />
        </mxCell>
        <mxCell id="k7XGvMZ9DqhgHn6kebsS-8" style="edgeStyle=orthogonalEdgeStyle;rounded=0;orthogonalLoop=1;jettySize=auto;html=1;entryX=0.5;entryY=0;entryDx=0;entryDy=0;" edge="1" parent="1" source="AgnMiAAKrqAUzmb-iD08-9" target="AgnMiAAKrqAUzmb-iD08-16">
          <mxGeometry relative="1" as="geometry" />
        </mxCell>
        <mxCell id="AgnMiAAKrqAUzmb-iD08-9" value="public" style="rounded=0;whiteSpace=wrap;html=1;" parent="1" vertex="1">
          <mxGeometry x="200" y="300" width="60" height="60" as="geometry" />
        </mxCell>
        <mxCell id="k7XGvMZ9DqhgHn6kebsS-9" style="edgeStyle=orthogonalEdgeStyle;rounded=0;orthogonalLoop=1;jettySize=auto;html=1;entryX=0.5;entryY=0;entryDx=0;entryDy=0;" edge="1" parent="1" source="AgnMiAAKrqAUzmb-iD08-10" target="AgnMiAAKrqAUzmb-iD08-16">
          <mxGeometry relative="1" as="geometry" />
        </mxCell>
        <mxCell id="AgnMiAAKrqAUzmb-iD08-10" value="mapi" style="rounded=0;whiteSpace=wrap;html=1;" parent="1" vertex="1">
          <mxGeometry x="274" y="300" width="140" height="60" as="geometry" />
        </mxCell>
        <mxCell id="AgnMiAAKrqAUzmb-iD08-11" style="edgeStyle=orthogonalEdgeStyle;rounded=0;orthogonalLoop=1;jettySize=auto;html=1;entryX=0.057;entryY=0;entryDx=0;entryDy=0;entryPerimeter=0;" parent="1" source="AgnMiAAKrqAUzmb-iD08-2" target="AgnMiAAKrqAUzmb-iD08-1" edge="1">
          <mxGeometry relative="1" as="geometry" />
        </mxCell>
        <mxCell id="AgnMiAAKrqAUzmb-iD08-13" style="edgeStyle=orthogonalEdgeStyle;rounded=0;orthogonalLoop=1;jettySize=auto;html=1;entryX=0.944;entryY=-0.081;entryDx=0;entryDy=0;entryPerimeter=0;" parent="1" source="AgnMiAAKrqAUzmb-iD08-4" target="AgnMiAAKrqAUzmb-iD08-1" edge="1">
          <mxGeometry relative="1" as="geometry" />
        </mxCell>
        <mxCell id="k7XGvMZ9DqhgHn6kebsS-10" style="edgeStyle=orthogonalEdgeStyle;rounded=0;orthogonalLoop=1;jettySize=auto;html=1;entryX=0.5;entryY=0;entryDx=0;entryDy=0;" edge="1" parent="1" source="AgnMiAAKrqAUzmb-iD08-14" target="AgnMiAAKrqAUzmb-iD08-16">
          <mxGeometry relative="1" as="geometry" />
        </mxCell>
        <mxCell id="AgnMiAAKrqAUzmb-iD08-14" value="wapi" style="rounded=0;whiteSpace=wrap;html=1;" parent="1" vertex="1">
          <mxGeometry x="420" y="300" width="130" height="60" as="geometry" />
        </mxCell>
        <mxCell id="k7XGvMZ9DqhgHn6kebsS-12" value="" style="rounded=0;whiteSpace=wrap;html=1;fillColor=#dae8fc;strokeColor=#6c8ebf;" vertex="1" parent="1">
          <mxGeometry x="70" y="400" width="540" height="160" as="geometry" />
        </mxCell>
        <mxCell id="AgnMiAAKrqAUzmb-iD08-16" value="" style="rounded=0;whiteSpace=wrap;html=1;" parent="1" vertex="1">
          <mxGeometry x="200" y="410" width="350" height="140" as="geometry" />
        </mxCell>
        <mxCell id="AgnMiAAKrqAUzmb-iD08-17" value="app user" style="rounded=0;whiteSpace=wrap;html=1;" parent="1" vertex="1">
          <mxGeometry x="210" y="420" width="70" height="50" as="geometry" />
        </mxCell>
        <mxCell id="AgnMiAAKrqAUzmb-iD08-18" value="enum" style="rounded=0;whiteSpace=wrap;html=1;" parent="1" vertex="1">
          <mxGeometry x="290" y="420" width="50" height="50" as="geometry" />
        </mxCell>
        <mxCell id="AgnMiAAKrqAUzmb-iD08-19" value="admin user" style="rounded=0;whiteSpace=wrap;html=1;" parent="1" vertex="1">
          <mxGeometry x="354" y="420" width="66" height="50" as="geometry" />
        </mxCell>
        <mxCell id="k7XGvMZ9DqhgHn6kebsS-2" value="StarWishApi架构" style="rounded=0;whiteSpace=wrap;html=1;" vertex="1" parent="1">
          <mxGeometry x="215" y="100" width="250" height="40" as="geometry" />
        </mxCell>
        <mxCell id="k7XGvMZ9DqhgHn6kebsS-5" value="client端" style="rounded=0;whiteSpace=wrap;html=1;" vertex="1" parent="1">
          <mxGeometry x="70" y="150" width="110" height="70" as="geometry" />
        </mxCell>
        <mxCell id="k7XGvMZ9DqhgHn6kebsS-7" value="api层" style="rounded=0;whiteSpace=wrap;html=1;" vertex="1" parent="1">
          <mxGeometry x="70" y="295" width="110" height="70" as="geometry" />
        </mxCell>
        <mxCell id="k7XGvMZ9DqhgHn6kebsS-11" style="edgeStyle=orthogonalEdgeStyle;rounded=0;orthogonalLoop=1;jettySize=auto;html=1;entryX=0.564;entryY=-0.016;entryDx=0;entryDy=0;entryPerimeter=0;" edge="1" parent="1" source="AgnMiAAKrqAUzmb-iD08-1" target="k7XGvMZ9DqhgHn6kebsS-6">
          <mxGeometry relative="1" as="geometry" />
        </mxCell>
        <mxCell id="k7XGvMZ9DqhgHn6kebsS-13" value="service层" style="rounded=0;whiteSpace=wrap;html=1;" vertex="1" parent="1">
          <mxGeometry x="70" y="400" width="110" height="160" as="geometry" />
        </mxCell>
      </root>
    </mxGraphModel>
  </diagram>
</mxfile>
